<?xml version="1.0" standalone="no"?>
<!DOCTYPE svg PUBLIC "-//W3C//DTD SVG 20010904//EN"
 "http://www.w3.org/TR/2001/REC-SVG-20010904/DTD/svg10.dtd">
<svg version="1.0" xmlns="http://www.w3.org/2000/svg"
 width="615.000000pt" height="615.000000pt" viewBox="0 0 615.000000 615.000000"
 preserveAspectRatio="xMidYMid meet">
<metadata>
Created by potrace 1.14, written by Peter Selinger 2001-2017
</metadata>
<g transform="translate(0.000000,615.000000) scale(0.100000,-0.100000)"
fill="#000000" stroke="none">
<path d="M1685 6134 c-197 -20 -360 -65 -508 -141 -85 -42 -103 -58 -237 -197
-80 -82 -247 -252 -373 -377 -196 -196 -231 -236 -257 -291 -61 -130 -51 -267
40 -573 27 -93 62 -224 76 -290 60 -286 99 -405 176 -532 42 -71 134 -171 209
-229 56 -43 59 -47 59 -88 0 -24 -11 -103 -25 -176 -21 -109 -25 -163 -25
-307 0 -197 5 -216 70 -287 53 -57 112 -81 205 -80 83 0 133 22 187 82 54 60
63 117 43 279 -19 158 -17 268 5 268 21 0 75 -113 101 -210 20 -74 22 -111 26
-475 l4 -395 36 -95 c105 -286 235 -463 463 -633 52 -39 98 -73 102 -77 4 -3
1 -44 -8 -90 -31 -164 2 -285 105 -383 67 -64 113 -82 187 -73 83 10 129 33
183 92 65 71 76 121 67 294 -4 69 -4 133 0 143 14 37 63 51 179 51 133 0 179
-17 251 -97 66 -73 91 -134 110 -268 22 -150 44 -209 97 -254 94 -81 223 -66
310 35 45 54 50 81 35 227 -13 131 -7 175 25 181 25 5 44 -14 75 -72 25 -48
27 -59 26 -181 l-1 -130 -58 -180 c-49 -151 -59 -195 -63 -271 -5 -110 11
-156 85 -235 70 -75 109 -92 225 -97 155 -7 253 38 328 150 l40 61 -1 271 c-2
303 2 329 67 457 43 86 107 157 169 188 54 27 245 44 245 22 0 -7 -21 -63 -46
-124 -36 -86 -48 -128 -51 -182 -6 -92 13 -127 87 -169 51 -29 62 -31 155 -31
85 0 106 3 142 23 110 58 151 125 160 259 5 79 1 122 -23 256 -6 35 -4 40 37
75 208 179 291 295 429 601 110 243 197 505 215 648 12 97 -28 205 -145 383
-99 151 -178 246 -361 437 -188 196 -229 249 -229 300 0 19 18 77 40 129 51
120 63 220 35 309 -20 62 -124 250 -207 372 -93 139 -124 229 -243 701 -68
271 -122 443 -156 499 -33 54 -110 115 -221 176 l-105 57 -131 0 -131 0 -135
-60 c-222 -98 -275 -114 -391 -114 -154 -1 -286 42 -625 204 -113 54 -241 113
-284 130 -95 37 -248 75 -366 90 -89 11 -436 21 -505 14z m451 -149 c258 -34
405 -80 582 -181 67 -38 122 -72 122 -75 0 -3 -56 -9 -124 -13 -203 -10 -331
-56 -458 -161 -120 -98 -205 -251 -260 -465 -27 -101 -31 -138 -35 -300 -3
-102 0 -277 7 -390 21 -358 -10 -469 -142 -501 -117 -27 -390 -140 -545 -225
-87 -47 -104 -72 -64 -94 16 -8 42 -1 128 34 59 24 169 63 243 86 221 68 337
111 371 136 61 45 91 105 115 232 14 75 16 134 10 433 -5 240 -4 378 4 455 40
371 177 544 495 625 77 20 115 24 270 24 153 0 216 -5 417 -34 l237 -34 83 20
c46 11 155 53 243 91 180 80 242 97 326 89 65 -6 182 -57 240 -106 71 -60 133
-225 204 -546 25 -115 59 -255 76 -310 16 -55 36 -125 45 -155 23 -77 54 -135
154 -290 105 -162 152 -247 175 -318 21 -65 12 -108 -41 -215 -21 -42 -40 -96
-45 -133 -18 -125 27 -198 264 -431 171 -169 247 -250 247 -264 0 -5 -15 -9
-34 -9 -43 0 -94 -17 -131 -45 -26 -19 -40 -22 -95 -19 -72 4 -132 -9 -173
-38 -19 -14 -36 -18 -56 -13 -42 9 -106 -11 -145 -45 -32 -29 -35 -29 -62 -15
-103 53 -253 0 -299 -106 -10 -24 -20 -45 -21 -47 -1 -2 -18 7 -37 18 -50 30
-98 24 -115 -13 -10 -21 -18 -27 -30 -22 -33 14 -138 17 -178 6 -23 -6 -58
-23 -79 -37 -37 -25 -38 -25 -99 -10 -80 21 -188 21 -226 1 -27 -14 -33 -14
-60 0 -41 21 -118 19 -157 -5 l-33 -19 -23 23 c-32 32 -161 46 -209 22 -30
-15 -33 -15 -53 4 -46 43 -183 56 -226 21 -24 -19 -24 -22 -21 -170 3 -114 0
-151 -9 -151 -7 0 -31 11 -54 25 -68 39 -70 52 -67 351 2 165 -1 276 -7 301
-14 52 -62 112 -133 165 -42 31 -76 71 -126 148 -118 179 -252 287 -397 320
-28 7 -91 12 -142 12 -81 0 -105 -5 -213 -42 -236 -81 -349 -137 -443 -220
-86 -76 -127 -179 -108 -270 64 -297 64 -325 6 -388 -32 -36 -36 -37 -112 -40
-99 -4 -137 14 -173 84 -24 47 -25 56 -24 224 1 217 20 341 69 447 19 42 35
81 35 88 0 23 -42 66 -114 114 -82 56 -117 92 -173 176 -90 135 -147 286 -165
435 -7 65 -28 147 -65 260 -68 207 -80 259 -88 390 -11 173 13 225 170 358
148 125 221 199 350 352 135 161 179 204 267 261 64 41 184 91 264 110 168 40
468 50 670 24z m-378 -2748 c157 -266 190 -348 202 -507 8 -112 22 -153 68
-203 l26 -27 -17 -48 c-42 -118 -59 -297 -36 -401 14 -69 58 -134 105 -156 54
-26 145 -25 206 2 79 36 91 85 63 258 -8 50 -12 109 -9 131 7 47 36 102 60
111 9 3 72 -9 141 -28 113 -30 126 -36 144 -65 23 -38 66 -72 137 -108 48 -24
52 -29 52 -61 0 -48 21 -94 59 -130 28 -26 40 -30 91 -30 41 0 63 5 77 18 27
23 40 21 47 -7 14 -58 103 -125 166 -126 14 0 43 9 63 19 35 18 39 18 43 3 12
-42 44 -89 74 -109 71 -49 163 -39 203 22 12 19 25 35 28 35 4 0 12 -13 19
-29 33 -80 119 -131 225 -131 116 0 183 53 193 149 2 28 6 51 9 51 2 0 17 -10
33 -21 21 -16 37 -20 59 -16 31 7 31 6 25 -31 -8 -49 22 -87 79 -103 71 -20
252 -15 327 9 76 25 140 69 170 117 l21 35 31 -23 c20 -15 44 -22 73 -22 36 0
50 6 79 34 20 19 43 54 53 78 l18 44 67 -7 c117 -11 174 7 213 68 11 18 115
32 115 16 0 -6 -34 -85 -76 -176 -108 -235 -145 -290 -329 -492 -114 -126
-108 -109 -85 -228 26 -134 26 -262 1 -319 -28 -61 -84 -94 -169 -101 -80 -5
-103 4 -126 52 -28 59 -21 133 23 244 43 108 62 191 54 237 -8 42 -47 91 -83
104 -40 14 -50 -8 -21 -45 12 -15 21 -37 21 -50 0 -23 -3 -24 -78 -24 -153 0
-276 -54 -385 -170 -71 -75 -116 -153 -148 -259 -20 -69 -21 -84 -13 -215 15
-257 12 -315 -17 -371 -44 -86 -172 -142 -265 -116 -106 29 -157 103 -162 238
-4 88 -3 93 57 326 74 283 49 432 -98 589 -59 64 -135 116 -145 100 -3 -5 5
-24 18 -42 l23 -34 -28 -39 c-39 -54 -44 -108 -24 -256 20 -150 12 -190 -44
-228 -66 -45 -176 -22 -214 44 -19 33 -36 162 -37 274 0 71 -24 151 -53 177
-76 70 -98 87 -157 121 -157 92 -380 169 -380 131 0 -6 13 -19 30 -28 16 -9
29 -21 27 -25 -1 -5 -29 -19 -62 -32 -73 -30 -123 -79 -135 -131 -6 -26 -4
-77 7 -155 9 -68 13 -136 9 -163 -13 -84 -93 -136 -189 -122 -56 9 -91 35
-119 89 -30 57 -37 231 -14 330 9 38 16 70 16 71 0 2 -39 26 -86 55 -188 115
-337 316 -458 615 -19 48 -40 110 -45 139 -7 32 -10 185 -9 407 3 339 2 359
-19 432 -28 98 -60 160 -117 226 -25 30 -46 58 -46 63 0 4 46 30 103 57 126
60 129 61 144 50 6 -5 52 -78 101 -161z m3718 -399 c39 -30 47 -42 90 -122
l37 -70 -34 -28 c-46 -39 -63 -36 -94 20 -16 26 -48 75 -72 110 -47 66 -49 86
-11 102 36 14 53 12 84 -12z m-230 -60 c16 -13 35 -29 42 -38 21 -25 112 -174
112 -182 0 -9 -41 -27 -81 -35 -25 -5 -30 1 -70 78 -24 46 -63 107 -86 136
-23 28 -39 54 -36 57 16 15 92 5 119 -16z m-204 -64 c55 -39 156 -199 144
-229 -5 -14 -94 -45 -127 -45 -22 0 -169 209 -169 240 0 11 12 32 26 47 31 31
68 27 126 -13z m-307 -18 c32 -22 200 -275 189 -285 -11 -11 -168 -31 -241
-31 l-52 0 -42 61 c-39 58 -41 64 -35 112 11 83 30 115 78 137 51 23 77 25
103 6z m965 -163 c-1 -51 -23 -179 -33 -189 -3 -3 -8 9 -11 27 -2 19 -9 63
-14 99 -10 63 -9 66 16 87 15 13 30 23 35 23 4 0 7 -21 7 -47z m-2597 5 c15
-8 17 -21 15 -91 l-3 -82 -40 -3 c-63 -5 -74 10 -75 103 -1 44 -1 83 -1 88 1
9 79 -2 104 -15z m1116 2 c73 -21 121 -104 121 -211 0 -99 -62 -379 -84 -379
-13 0 -100 136 -144 225 -71 143 -90 260 -52 322 27 46 91 63 159 43z m244
-64 c109 -145 367 -548 367 -574 0 -33 -63 -93 -116 -111 -46 -16 -283 -26
-302 -13 -10 7 -11 30 -2 118 19 189 12 494 -16 627 -9 44 10 31 69 -47z
m-1123 44 c24 0 29 -5 38 -42 6 -24 12 -72 13 -108 2 -62 1 -65 -21 -62 -12 1
-42 11 -66 22 l-44 19 0 71 c0 78 13 115 37 106 8 -3 27 -6 43 -6z m267 -32
c29 -32 38 -53 58 -137 22 -89 19 -92 -79 -89 l-70 3 -12 55 c-22 92 -18 137
12 165 33 31 64 32 91 3z m278 13 c17 -7 23 -28 41 -140 l20 -133 -25 -9 c-13
-6 -45 -9 -70 -7 l-46 3 -37 100 c-38 103 -47 162 -26 183 13 13 111 15 143 3z
m1667 -92 c3 -24 7 -76 7 -115 1 -58 -3 -77 -22 -105 -12 -19 -32 -35 -43 -37
-19 -3 -19 3 -19 140 0 142 1 143 25 155 36 18 44 12 52 -38z m-178 -149 c-1
-93 -5 -135 -17 -164 l-17 -38 -65 4 c-35 2 -67 7 -70 10 -4 3 -1 26 6 49 7
24 15 89 18 143 l6 99 45 13 c25 6 56 11 70 10 l25 -1 -1 -125z m-224 21 c0
-141 -86 -381 -137 -381 -49 0 -231 275 -236 358 l-2 27 135 7 c74 4 155 13
180 21 25 8 48 15 53 16 4 1 7 -21 7 -48z m-2081 -35 c55 -16 66 -41 48 -110
-22 -89 -93 -112 -123 -40 -24 58 -15 164 15 164 9 0 36 -6 60 -14z m280 -47
l63 -12 -4 -86 c-7 -133 -47 -187 -107 -144 -38 28 -61 83 -68 162 -7 85 -1
105 30 98 12 -3 51 -11 86 -18z m290 -60 l53 -11 -4 -112 c-3 -95 -8 -118 -27
-149 -27 -44 -63 -57 -91 -32 -40 36 -87 257 -66 310 7 18 12 18 135 -6z m431
-111 c46 -121 49 -219 9 -259 -28 -28 -118 -26 -170 3 -61 34 -89 100 -89 209
l0 88 58 4 c31 2 83 3 116 3 l58 -1 18 -47z"/>
<path d="M3870 5501 c-136 -42 -196 -135 -194 -301 2 -117 68 -501 98 -565 53
-117 136 -170 316 -205 204 -40 331 -25 421 49 101 84 92 202 -30 399 -71 115
-104 187 -157 342 -21 63 -52 135 -69 160 -32 47 -112 103 -175 120 -41 11
-174 12 -210 1z m231 -178 c49 -45 78 -99 114 -218 31 -105 86 -221 150 -320
25 -38 52 -89 61 -112 15 -39 15 -44 0 -68 -14 -21 -73 -55 -96 -55 -4 0 -10
44 -13 98 -6 113 -26 172 -110 314 -85 145 -129 242 -174 381 -9 29 24 20 68
-20z"/>
<path d="M2793 5436 c-167 -41 -318 -181 -384 -356 -47 -124 -61 -312 -38
-535 19 -191 58 -301 123 -353 20 -15 26 -29 26 -57 0 -69 46 -131 101 -135
75 -7 118 26 120 89 1 53 13 85 31 89 31 6 48 -41 63 -179 23 -206 51 -276
126 -314 64 -34 178 -4 223 58 35 48 29 156 -17 299 -49 153 -49 154 10 163
120 18 263 106 301 187 18 36 22 71 28 218 6 166 5 181 -20 290 -17 73 -33
121 -45 134 -28 27 -79 25 -103 -3 -23 -29 -23 -59 1 -141 29 -103 34 -172 20
-308 -9 -100 -16 -132 -31 -149 -22 -24 -75 -49 -85 -40 -3 3 0 37 8 74 18 98
14 243 -10 335 -28 108 -50 148 -208 384 -33 51 -59 95 -56 98 8 7 70 -20 124
-54 57 -37 111 -40 133 -8 28 40 20 73 -26 113 -113 98 -271 136 -415 101z"/>
<path d="M4344 4165 c-171 -40 -267 -88 -342 -169 -57 -62 -75 -107 -75 -186
0 -150 148 -367 358 -523 186 -138 345 -180 463 -121 142 70 171 230 81 437
-19 44 -41 125 -60 225 -44 237 -54 263 -132 326 -35 28 -46 31 -115 33 -53 2
-109 -5 -178 -22z m229 -144 c15 -15 27 -60 49 -190 22 -131 38 -195 69 -273
53 -133 59 -182 27 -228 -13 -19 -31 -36 -41 -38 -14 -3 -17 5 -17 55 0 65
-16 135 -49 208 -12 27 -29 93 -37 145 -27 173 -44 236 -75 284 -16 26 -26 52
-23 58 10 15 75 2 97 -21z"/>
</g>
</svg>
